<svg width="216" height="216" viewBox="0 0 216 216" fill="none" xmlns="http://www.w3.org/2000/svg">
<path fill-rule="evenodd" clip-rule="evenodd" d="M197.518 182.52C194.563 187.64 188.24 189.603 182.963 187.228C182.963 187.228 132.407 167.33 117.982 161.653C115.87 160.821 113.297 159.285 107.973 159.285C102.648 159.285 99.0468 161.231 99.0425 161.233C86.6974 166.098 33.079 187.227 33.079 187.227C27.8014 189.603 21.4783 187.64 18.5227 182.52C15.5671 177.4 17.0287 170.942 21.7238 167.559C23.9386 165.797 54.4824 141.489 67.2336 131.342C67.8362 130.862 68.3993 130.414 68.9177 130.002C69.3792 129.634 70.853 128.434 72.7416 128.434C74.8706 128.434 76.117 129.724 76.865 130.345C85.8204 137.786 91.1621 142.312 91.1621 142.312C92.8598 143.589 94.9702 144.346 97.2576 144.346C102.868 144.346 107.415 139.797 107.415 134.186C107.415 134.094 107.412 134.001 107.412 133.909C107.412 130.013 104.486 127.328 103.924 126.758C99.6595 122.431 88.9942 111.609 88.9942 111.609C87.5419 110.351 86.6124 108.493 86.4842 106.397C86.4432 105.73 86.953 102.293 86.8277 103.131C87.9098 95.889 96.6175 37.6129 96.6175 37.6129C97.1986 31.8536 102.061 27.3586 107.972 27.3586C113.883 27.3586 118.747 31.855 119.326 37.6158C119.326 37.6158 125.61 80.3759 127.215 91.2997C127.403 92.5827 127.973 95.2122 127.973 96.4383C127.973 100.848 124.811 104.518 120.632 105.306C119.692 105.483 118.12 105.424 118.321 105.438C118.321 105.438 112.929 105.439 114.62 105.439C111.862 105.439 109.626 107.675 109.626 110.433C109.626 112.512 111.561 114.255 112.148 114.761C127.52 128.032 128.638 130.53 135.685 130.483L135.69 130.498H142.044C147.653 130.498 149.917 132.353 157.675 138.521C169.386 147.833 194.315 167.555 194.315 167.555C199.012 170.937 200.473 177.397 197.518 182.516L197.518 182.52Z" fill="black"/>
</svg>
